<svg aria-hidden="true" style="width:0;height:0;position:absolute;overflow:hidden" xmlns="http://www.w3.org/2000/svg"><defs><symbol id="heart" viewBox="0 0 32 32"><path stroke-linejoin="round" stroke-linecap="round" stroke-width="2" d="M9.337 4.001c-3.683 0-6.67 2.955-6.67 6.602 0 2.943 1.168 9.93 12.656 16.992a1.31 1.31 0 0 0 1.37-.003l-.006.003c11.488-7.063 12.656-14.049 12.656-16.992 0-3.647-2.987-6.602-6.67-6.602-3.681 0-6.668 4.001-6.668 4.001s-2.987-4.001-6.668-4.001z"/></symbol><symbol id="like" viewBox="0 0 37 25"><path stroke-linejoin="round" stroke-linecap="round" stroke-width="2.286" d="M10.666 2.286c-4.207 0-7.619 3.377-7.619 7.543 0 3.363 1.333 11.345 14.458 19.413a1.501 1.501 0 0 0 1.56 0c13.125-8.069 14.458-16.05 14.458-19.413 0-4.166-3.412-7.543-7.619-7.543s-7.619 4.571-7.619 4.571-3.412-4.571-7.619-4.571z"/></symbol><symbol id="icon-like-stroke" viewBox="0 0 37 25"><path fill="none" stroke="#4440f7" style="stroke:var(--color1,#4440f7)" stroke-linejoin="round" stroke-linecap="round" stroke-width="2" d="M9.333 4c-3.681 0-6.667 2.955-6.667 6.6 0 2.943 1.167 9.927 12.651 16.987a1.316 1.316 0 0 0 1.366 0c11.484-7.06 12.651-14.044 12.651-16.987 0-3.645-2.985-6.6-6.667-6.6S16 8 16 8s-2.985-4-6.667-4z"/></symbol><symbol id="favourite-heart-icon" viewBox="0 0 36 32"><path fill="none" stroke="#f4f4f4" style="stroke:var(--color1,#f4f4f4)" stroke-linejoin="round" stroke-linecap="round" stroke-width="2" d="M31.261 4.915a8.244 8.244 0 0 0-5.835-2.417 8.264 8.264 0 0 0-5.835 2.417l-1.59 1.59-1.59-1.59a8.25 8.25 0 0 0-11.67 0 8.25 8.25 0 0 0 0 11.67l13.26 13.26 13.26-13.26a8.26 8.26 0 0 0 2.417-5.835 8.245 8.245 0 0 0-2.417-5.835v0z"/></symbol><symbol id="arrow-down" viewBox="0 0 32 32"><path d="M3.762 9.148 0 12.629l16.01 14.816 16.01-14.816-3.762-3.481-12.247 11.31L3.764 9.148z"/></symbol><symbol id="arrow-up" viewBox="0 0 32 32"><path d="M3.762 25.158 0 21.677 16.01 6.861l16.01 14.816-3.762 3.481-12.247-11.31-12.247 11.31z"/></symbol><symbol id="calendar" viewBox="0 0 32 32"><path d="M22.667 4H28c.736 0 1.333.597 1.333 1.333v21.334c0 .736-.597 1.333-1.333 1.333H4a1.333 1.333 0 0 1-1.333-1.333V5.333C2.667 4.597 3.264 4 4 4h5.333V1.333H12V4h8V1.333h2.667V4zm4 10.667H5.333v10.666h21.334V14.667zm-6.667-8h-8v2.666H9.333V6.667h-4V12h21.334V6.667h-4v2.666H20V6.667zM8 17.333h2.667V20H8v-2.667zm6.667 0h2.666V20h-2.666v-2.667zm6.666 0H24V20h-2.667v-2.667z"/></symbol><symbol id="moon" viewBox="0 0 32 32"><path d="M24.821 23.268q-.964.161-1.964.161-3.25 0-6.018-1.607t-4.375-4.375-1.607-6.018q0-3.429 1.857-6.375-3.589 1.071-5.866 4.089T4.571 16q0 2.321.911 4.438t2.438 3.643 3.643 2.438 4.438.911q2.571 0 4.884-1.098t3.938-3.063zm3.625-1.518q-1.679 3.625-5.063 5.795t-7.384 2.17q-2.786 0-5.321-1.089t-4.375-2.929-2.929-4.375-1.089-5.321q0-2.732 1.027-5.223t2.786-4.313 4.205-2.938 5.179-1.223q.786-.036 1.089.696.321.732-.268 1.286-1.536 1.393-2.348 3.241t-.813 3.902q0 2.643 1.304 4.875t3.536 3.536 4.875 1.304q2.107 0 4.071-.911.732-.321 1.286.232.25.25.313.607t-.08.679z"/></symbol><symbol id="sun" viewBox="0 0 32 32"><path d="M16 9c-3.859 0-7 3.141-7 7s3.141 7 7 7 7-3.141 7-7-3.141-7-7-7zm0 12c-2.762 0-5-2.238-5-5s2.238-5 5-5 5 2.238 5 5-2.238 5-5 5zm0-14a1 1 0 0 0 1-1V4a1 1 0 0 0-2 0v2a1 1 0 0 0 1 1zm0 18a1 1 0 0 0-1 1v2a1 1 0 0 0 2 0v-2a1 1 0 0 0-1-1zm7.777-15.365 1.414-1.414a.999.999 0 1 0-1.414-1.414l-1.414 1.414a.999.999 0 1 0 1.414 1.414zM8.223 22.365l-1.414 1.414a.999.999 0 1 0 1.414 1.414l1.414-1.414a.999.999 0 1 0-1.414-1.414zM7 16a1 1 0 0 0-1-1H4a1 1 0 0 0 0 2h2a1 1 0 0 0 1-1zm21-1h-2a1 1 0 0 0 0 2h2a1 1 0 0 0 0-2zM8.221 9.635a.999.999 0 1 0 1.414-1.414L8.221 6.807a.999.999 0 1 0-1.414 1.414l1.414 1.414zm15.558 12.728a.999.999 0 1 0-1.414 1.414l1.414 1.414a.999.999 0 1 0 1.414-1.414l-1.414-1.414z"/></symbol><symbol id="check" viewBox="0 0 32 32"><path d="M28.783 6.39a1.062 1.062 0 0 0-.732.323L11.735 23.029l-6.714-6.714a1.067 1.067 0 1 0-1.51 1.508l7.468 7.468a1.065 1.065 0 0 0 1.51 0L29.558 8.222a1.067 1.067 0 0 0-.744-1.832h-.033.002z"/></symbol><symbol id="close-icon" viewBox="0 0 32 32"><path d="M7.501 6.727a2.257 2.257 0 0 0-.772.776l-.006.01a1.15 1.15 0 0 0 .005.99l-.003-.007c.075.149 1.313 1.427 3.745 3.864L14.105 16l-3.635 3.64c-2.432 2.437-3.671 3.715-3.745 3.864-.235.469-.113.977.34 1.431s.961.575 1.431.34c.149-.075 1.427-1.313 3.864-3.745L16 17.895l3.64 3.635c2.437 2.432 3.715 3.671 3.864 3.745.469.235.977.113 1.431-.34s.575-.961.34-1.431c-.075-.149-1.313-1.427-3.745-3.864L17.895 16l3.635-3.64c2.432-2.437 3.671-3.715 3.745-3.864.235-.469.113-.977-.34-1.431s-.961-.575-1.431-.34c-.149.075-1.427 1.313-3.864 3.745L16 14.105l-3.64-3.635C9.923 8.038 8.645 6.799 8.496 6.725a1.173 1.173 0 0 0-1.002.005l.007-.003z"/></symbol><symbol id="location" viewBox="0 0 24 32"><path d="M12.164.881C5.607.889.293 6.202.284 12.759v.019c0 2.685.9 5.16 2.414 7.14l-.021-.028s.324.426.376.486l9.11 10.747 9.114-10.749c.047-.058.372-.483.372-.483l.001-.004a11.674 11.674 0 0 0 2.394-7.11v-.015.001C24.037 6.204 18.722.889 12.164.882h-.001zm0 16.199a4.32 4.32 0 1 1 0-8.642 4.32 4.32 0 1 1 0 8.64z"/></symbol><symbol id="search-icon" viewBox="0 0 32 32"><path d="M13.685 27.369a13.545 13.545 0 0 0 8.405-2.911l-.029.022 7.52 7.52L32 29.581l-7.52-7.518a13.517 13.517 0 0 0 2.889-8.38C27.359 6.13 21.239.009 13.687 0h-.001C6.132.009.01 6.129.001 13.682v.001C.01 21.238 6.132 27.36 13.686 27.368h.001zm0-23.947c5.664.007 10.254 4.597 10.261 10.261v.001c-.006 5.665-4.596 10.256-10.261 10.263h-.001c-5.665-.006-10.256-4.596-10.263-10.261v-.001C3.427 8.02 8.017 3.429 13.682 3.422h.001z"/></symbol><symbol id="mobile-menu" viewBox="0 0 32 32"><path d="M3.492 6.741c-.321.1-.495.235-.655.507-.129.22-.144.297-.144.752 0 .457.015.531.148.759.1.166.234.3.395.397l.005.003.252.148h25.021l.26-.16c.329-.204.507-.529.544-1.001.037-.459-.088-.885-.333-1.129-.376-.376.605-.349-13.008-.345-9.711.003-12.316.017-12.485.071zm0 8c-.321.1-.495.235-.655.507-.129.22-.144.297-.144.752 0 .457.015.531.148.759.1.166.234.3.395.397l.005.003.252.148h25.021l.26-.16c.329-.204.507-.529.544-1.001.037-.459-.088-.885-.333-1.129-.376-.376.605-.349-13.008-.345-9.711.003-12.316.017-12.485.071zm0 8c-.321.1-.495.235-.655.507-.129.22-.144.297-.144.752 0 .457.015.531.148.759.1.166.234.3.395.397l.005.003.252.148h25.021l.26-.16c.329-.204.507-.529.544-1.001.037-.459-.088-.885-.333-1.129-.376-.376.605-.349-13.008-.345-9.711.003-12.316.017-12.485.071z"/></symbol><symbol id="icon-home" viewBox="0 0 33 33"><path fill="#4440f6" style="fill:var(--color1,#4440f6)" d="M32 16c0 8.837-7.163 16-16 16S0 24.837 0 16 7.163 0 16 0s16 7.163 16 16z"/><path fill="none" stroke="#f4f4f4" style="stroke:var(--color2,#f4f4f4)" stroke-linejoin="round" stroke-linecap="round" d="M9.25 13.75 16 8.5l6.75 5.25V22a1.503 1.503 0 0 1-1.5 1.5h-10.5a1.503 1.503 0 0 1-1.5-1.5v-8.25z"/><path fill="none" stroke="#f4f4f4" style="stroke:var(--color2,#f4f4f4)" stroke-linejoin="round" stroke-linecap="round" d="M13.75 23.5V16h4.5v7.5"/></symbol><symbol id="heart-menu" viewBox="0 0 32 32"><path fill="#4440f6" style="fill:var(--color1,#4440f6)" stroke="#f4f4f4" d="M32 16c0 8.837-7.163 16-16 16S0 24.837 0 16 7.163 0 16 0s16 7.163 16 16z"/><path fill="none" stroke="#f4f4f4" style="stroke:var(--color2,#f4f4f4)" stroke-linejoin="round" stroke-linecap="round" d="M22.631 10.457a4.111 4.111 0 0 0-4.496-.895 4.09 4.09 0 0 0-1.338.895l-.795.795-.795-.795a4.125 4.125 0 0 0-5.836 0 4.125 4.125 0 0 0 0 5.836l6.63 6.63 6.63-6.63a4.111 4.111 0 0 0 .895-4.496 4.116 4.116 0 0 0-.895-1.338v0z"/></symbol><symbol id="icon-book" viewBox="0 0 32 32"><path fill="#4440f6" style="fill:var(--color1,#4440f6)" d="M32 16c0 8.837-7.163 16-16 16S0 24.837 0 16 7.163 0 16 0s16 7.163 16 16z"/><path fill="none" stroke="#f4f4f4" style="stroke:var(--color2,#f4f4f4)" stroke-linejoin="round" stroke-linecap="round" d="M8.5 9.25H13a3.004 3.004 0 0 1 3 3v10.5a2.25 2.25 0 0 0-2.25-2.25H8.5V9.25zM23.5 9.25H19a3.004 3.004 0 0 0-3 3v10.5a2.25 2.25 0 0 1 2.25-2.25h5.25V9.25z"/></symbol><symbol id="arrow-right" viewBox="0 0 18 32"><path stroke-linejoin="round" stroke-linecap="round" stroke-width="4.571" d="M2.286 29.714 16 16 2.286 2.286"/></symbol><symbol id="icon-chek" viewBox="0 0 32 32"><path fill="#00DD73" style="fill:var(--color1,#00dd73)" d="M28.779 6.39c-.277.008-.54.124-.733.323L11.734 23.026l-6.713-6.713a1.065 1.065 0 1 0-1.508 1.507l7.467 7.467a1.066 1.066 0 0 0 1.508 0L29.555 8.22a1.072 1.072 0 0 0 .239-1.18 1.066 1.066 0 0 0-1.014-.65z"/></symbol><symbol id="calendar"><path d="M13.167 2.5H16.5a.833.833 0 0 1 .834.833v13.334a.833.833 0 0 1-.834.833h-15a.834.834 0 0 1-.833-.833V3.333A.833.833 0 0 1 1.5 2.5h3.334V.833H6.5V2.5h5V.833h1.667V2.5zm2.5 6.667H2.334v6.666h13.333V9.167zm-4.167-5h-5v1.666H4.834V4.167h-2.5V7.5h13.333V4.167h-2.5v1.666H11.5V4.167zM4 10.833h1.667V12.5H4v-1.667zm4.167 0h1.667V12.5H8.167v-1.667zm4.167 0H14V12.5h-1.666v-1.667z" fill="none"/></symbol></defs></svg>