<svg aria-hidden="true" style="position: absolute; width: 0; height: 0; overflow: hidden;" version="1.1"
    xmlns="http://www.w3.org/2000/svg" xmlns:xlink="http://www.w3.org/1999/xlink">
    <defs>
        <symbol id="heart" viewBox="0 0 32 32">
            <path stroke-linejoin="round" stroke-linecap="round" stroke-miterlimit="4" stroke-width="2"
                d="M9.337 4.001c-3.683 0-6.67 2.955-6.67 6.602 0 2.943 1.168 9.93 12.656 16.992 0.194 0.12 0.43 0.191 0.682 0.191s0.488-0.071 0.688-0.194l-0.006 0.003c11.488-7.063 12.656-14.049 12.656-16.992 0-3.647-2.987-6.602-6.67-6.602-3.681 0-6.668 4.001-6.668 4.001s-2.987-4.001-6.668-4.001z">
            </path>
        </symbol>
        <symbol id="like" viewBox="0 0 37 25">
            <path stroke-linejoin="round" stroke-linecap="round" stroke-miterlimit="4" stroke-width="2.2857"
                d="M10.666 2.286c-4.207 0-7.619 3.377-7.619 7.543 0 3.363 1.333 11.345 14.458 19.413 0.235 0.143 0.505 0.219 0.78 0.219s0.545-0.076 0.78-0.219c13.125-8.069 14.458-16.050 14.458-19.413 0-4.166-3.412-7.543-7.619-7.543s-7.619 4.571-7.619 4.571-3.412-4.571-7.619-4.571z">
            </path>
        </symbol>
        <symbol id="icon-like-stroke" viewBox="0 0 37 25">
            <path fill="none" stroke="#4440f7" style="stroke: var(--color1, #4440f7)" stroke-linejoin="round"
                stroke-linecap="round" stroke-miterlimit="4" stroke-width="2"
                d="M9.333 4c-3.681 0-6.667 2.955-6.667 6.6 0 2.943 1.167 9.927 12.651 16.987 0.206 0.125 0.442 0.191 0.683 0.191s0.477-0.066 0.683-0.191c11.484-7.060 12.651-14.044 12.651-16.987 0-3.645-2.985-6.6-6.667-6.6s-6.667 4-6.667 4-2.985-4-6.667-4z">
            </path>
        </symbol>
        <symbol id="favourite-heart-icon" viewBox="0 0 36 32">
            <path fill="none" stroke="#f4f4f4" style="stroke: var(--color1, #f4f4f4)" stroke-linejoin="round"
                stroke-linecap="round" stroke-miterlimit="4" stroke-width="2"
                d="M31.261 4.915c-0.766-0.766-1.676-1.375-2.677-1.789s-2.074-0.628-3.158-0.628c-1.084 0-2.157 0.214-3.158 0.628s-1.911 1.023-2.677 1.789l-1.59 1.59-1.59-1.59c-1.548-1.548-3.646-2.417-5.835-2.417s-4.287 0.869-5.835 2.417c-1.548 1.548-2.417 3.646-2.417 5.835s0.869 4.287 2.417 5.835l13.26 13.26 13.26-13.26c0.766-0.766 1.374-1.676 1.789-2.677s0.628-2.074 0.628-3.158-0.213-2.157-0.628-3.158c-0.415-1.001-1.023-1.911-1.789-2.677v0z">
            </path>
        </symbol>
        <symbol id="arrow-down" viewBox="0 0 32 32">
            <path d="M3.762 9.148l-3.762 3.481 16.010 14.816 16.010-14.816-3.762-3.481-12.247 11.31-12.247-11.31z">
            </path>
        </symbol>
        <symbol id="arrow-up" viewBox="0 0 32 32">
            <path d="M3.762 25.158l-3.762-3.481 16.010-14.816 16.010 14.816-3.762 3.481-12.247-11.31-12.247 11.31z">
            </path>
        </symbol>
        <symbol id="calendar" viewBox="0 0 32 32">
            <path
                d="M22.667 4h5.333c0.736 0 1.333 0.597 1.333 1.333v0 21.334c0 0.736-0.597 1.333-1.333 1.333v0h-24c-0.736 0-1.333-0.597-1.333-1.333v0-21.334c0-0.736 0.597-1.333 1.333-1.333v0h5.333v-2.667h2.667v2.667h8v-2.667h2.667v2.667zM26.667 14.667h-21.334v10.666h21.334v-10.666zM20 6.667h-8v2.666h-2.667v-2.666h-4v5.333h21.334v-5.333h-4v2.666h-2.667v-2.666zM8 17.333h2.667v2.667h-2.667v-2.667zM14.667 17.333h2.666v2.667h-2.666v-2.667zM21.333 17.333h2.667v2.667h-2.667v-2.667z">
            </path>
        </symbol>
        <symbol id="moon" viewBox="0 0 32 32">
            <path
                d="M24.821 23.268q-0.964 0.161-1.964 0.161-3.25 0-6.018-1.607t-4.375-4.375-1.607-6.018q0-3.429 1.857-6.375-3.589 1.071-5.866 4.089t-2.277 6.857q0 2.321 0.911 4.438t2.438 3.643 3.643 2.438 4.438 0.911q2.571 0 4.884-1.098t3.938-3.063zM28.446 21.75q-1.679 3.625-5.063 5.795t-7.384 2.17q-2.786 0-5.321-1.089t-4.375-2.929-2.929-4.375-1.089-5.321q0-2.732 1.027-5.223t2.786-4.313 4.205-2.938 5.179-1.223q0.786-0.036 1.089 0.696 0.321 0.732-0.268 1.286-1.536 1.393-2.348 3.241t-0.813 3.902q0 2.643 1.304 4.875t3.536 3.536 4.875 1.304q2.107 0 4.071-0.911 0.732-0.321 1.286 0.232 0.25 0.25 0.313 0.607t-0.080 0.679z">
            </path>
        </symbol>
        <symbol id="sun" viewBox="0 0 32 32">
            <path
                d="M16 9c-3.859 0-7 3.141-7 7s3.141 7 7 7 7-3.141 7-7-3.141-7-7-7zM16 21c-2.762 0-5-2.238-5-5s2.238-5 5-5c2.762 0 5 2.238 5 5s-2.238 5-5 5zM16 7c0.552 0 1-0.448 1-1v-2c0-0.552-0.448-1-1-1s-1 0.448-1 1v2c0 0.552 0.448 1 1 1zM16 25c-0.552 0-1 0.448-1 1v2c0 0.552 0.448 1 1 1s1-0.448 1-1v-2c0-0.552-0.448-1-1-1zM23.777 9.635l1.414-1.414c0.391-0.391 0.391-1.023 0-1.414s-1.023-0.391-1.414 0l-1.414 1.414c-0.391 0.391-0.391 1.023 0 1.414s1.023 0.391 1.414 0zM8.223 22.365l-1.414 1.414c-0.391 0.391-0.391 1.023 0 1.414s1.023 0.391 1.414 0l1.414-1.414c0.391-0.392 0.391-1.023 0-1.414s-1.023-0.392-1.414 0zM7 16c0-0.552-0.448-1-1-1h-2c-0.552 0-1 0.448-1 1s0.448 1 1 1h2c0.552 0 1-0.448 1-1zM28 15h-2c-0.552 0-1 0.448-1 1s0.448 1 1 1h2c0.552 0 1-0.448 1-1s-0.448-1-1-1zM8.221 9.635c0.391 0.391 1.024 0.391 1.414 0s0.391-1.023 0-1.414l-1.414-1.414c-0.391-0.391-1.023-0.391-1.414 0s-0.391 1.023 0 1.414l1.414 1.414zM23.779 22.363c-0.392-0.391-1.023-0.391-1.414 0s-0.392 1.023 0 1.414l1.414 1.414c0.391 0.391 1.023 0.391 1.414 0s0.391-1.023 0-1.414l-1.414-1.414z">
            </path>
        </symbol>
        <symbol id="check" viewBox="0 0 32 32">
            <path
                d="M28.783 6.39c-0.288 0.009-0.546 0.131-0.732 0.323l-16.316 16.316-6.714-6.714c-0.194-0.197-0.463-0.319-0.761-0.319-0.589 0-1.067 0.478-1.067 1.067 0 0.297 0.122 0.566 0.318 0.76l7.468 7.468c0.193 0.193 0.46 0.313 0.755 0.313s0.562-0.12 0.755-0.313v0l17.069-17.069c0.2-0.194 0.323-0.465 0.323-0.765 0-0.589-0.478-1.067-1.067-1.067-0.011 0-0.022 0-0.033 0l0.002-0z">
            </path>
        </symbol>

        <symbol id="close-icon" viewBox="0 0 32 32">
            <path
                d="M7.501 6.727c-0.322 0.196-0.585 0.461-0.772 0.776l-0.006 0.010c-0.069 0.144-0.109 0.312-0.109 0.49 0 0.179 0.041 0.348 0.114 0.5l-0.003-0.007c0.075 0.149 1.313 1.427 3.745 3.864l3.635 3.64-3.635 3.64c-2.432 2.437-3.671 3.715-3.745 3.864-0.235 0.469-0.113 0.977 0.34 1.431s0.961 0.575 1.431 0.34c0.149-0.075 1.427-1.313 3.864-3.745l3.64-3.635 3.64 3.635c2.437 2.432 3.715 3.671 3.864 3.745 0.469 0.235 0.977 0.113 1.431-0.34s0.575-0.961 0.34-1.431c-0.075-0.149-1.313-1.427-3.745-3.864l-3.635-3.64 3.635-3.64c2.432-2.437 3.671-3.715 3.745-3.864 0.235-0.469 0.113-0.977-0.34-1.431s-0.961-0.575-1.431-0.34c-0.149 0.075-1.427 1.313-3.864 3.745l-3.64 3.635-3.64-3.635c-2.437-2.432-3.715-3.671-3.864-3.745-0.145-0.069-0.316-0.109-0.496-0.109-0.181 0-0.353 0.041-0.506 0.114l0.007-0.003z">
            </path>
        </symbol>
        <symbol id="location" viewBox="0 0 24 32">
            <path
                d="M12.164 0.881c-6.557 0.008-11.871 5.321-11.88 11.878v0.001c0 0.005 0 0.012 0 0.018 0 2.685 0.9 5.16 2.414 7.14l-0.021-0.028s0.324 0.426 0.376 0.486l9.11 10.747 9.114-10.749c0.047-0.058 0.372-0.483 0.372-0.483l0.001-0.004c1.494-1.951 2.394-4.425 2.394-7.11 0-0.005 0-0.010 0-0.015v0.001c-0.007-6.559-5.322-11.874-11.88-11.881h-0.001zM12.164 17.080c-2.386 0-4.321-1.934-4.321-4.321s1.934-4.321 4.321-4.321v0c2.386 0 4.32 1.934 4.32 4.32s-1.934 4.32-4.32 4.32v0z">
            </path>
        </symbol>
        <symbol id="search-icon" viewBox="0 0 32 32">
            <path
                d="M13.685 27.369c3.173-0.001 6.091-1.089 8.405-2.911l-0.029 0.022 7.52 7.52 2.419-2.419-7.52-7.518c1.801-2.285 2.888-5.205 2.889-8.38v-0c-0.010-7.553-6.13-13.674-13.682-13.683h-0.001c-7.554 0.009-13.676 6.129-13.685 13.682v0.001c0.009 7.555 6.131 13.677 13.685 13.685h0.001zM13.685 3.422c5.664 0.007 10.254 4.597 10.261 10.261v0.001c-0.006 5.665-4.596 10.256-10.261 10.263h-0.001c-5.665-0.006-10.256-4.596-10.263-10.261v-0.001c0.006-5.665 4.596-10.256 10.261-10.263h0.001z">
            </path>
        </symbol>
        <symbol id="mobile-menu" viewBox="0 0 32 32">
            <path
                d="M3.492 6.741c-0.321 0.1-0.495 0.235-0.655 0.507-0.129 0.22-0.144 0.297-0.144 0.752 0 0.457 0.015 0.531 0.148 0.759 0.1 0.166 0.234 0.3 0.395 0.397l0.005 0.003 0.252 0.148h25.021l0.26-0.16c0.329-0.204 0.507-0.529 0.544-1.001 0.037-0.459-0.088-0.885-0.333-1.129-0.376-0.376 0.605-0.349-13.008-0.345-9.711 0.003-12.316 0.017-12.485 0.071zM3.492 14.741c-0.321 0.1-0.495 0.235-0.655 0.507-0.129 0.22-0.144 0.297-0.144 0.752 0 0.457 0.015 0.531 0.148 0.759 0.1 0.166 0.234 0.3 0.395 0.397l0.005 0.003 0.252 0.148h25.021l0.26-0.16c0.329-0.204 0.507-0.529 0.544-1.001 0.037-0.459-0.088-0.885-0.333-1.129-0.376-0.376 0.605-0.349-13.008-0.345-9.711 0.003-12.316 0.017-12.485 0.071zM3.492 22.741c-0.321 0.1-0.495 0.235-0.655 0.507-0.129 0.22-0.144 0.297-0.144 0.752 0 0.457 0.015 0.531 0.148 0.759 0.1 0.166 0.234 0.3 0.395 0.397l0.005 0.003 0.252 0.148h25.021l0.26-0.16c0.329-0.204 0.507-0.529 0.544-1.001 0.037-0.459-0.088-0.885-0.333-1.129-0.376-0.376 0.605-0.349-13.008-0.345-9.711 0.003-12.316 0.017-12.485 0.071z">
            </path>
        </symbol>
        <symbol id="icon-home" viewBox="0 0 33 33">
            <path fill="#4440f6" style="fill: var(--color1, #4440f6)"
                d="M32 16c0 8.837-7.163 16-16 16s-16-7.163-16-16c0-8.837 7.163-16 16-16s16 7.163 16 16z"></path>
            <path fill="none" stroke="#f4f4f4" style="stroke: var(--color2, #f4f4f4)" stroke-linejoin="round"
                stroke-linecap="round" stroke-miterlimit="4" stroke-width="1"
                d="M9.25 13.75l6.75-5.25 6.75 5.25v8.25c0 0.398-0.158 0.779-0.439 1.061s-0.663 0.439-1.061 0.439h-10.5c-0.398 0-0.779-0.158-1.061-0.439s-0.439-0.663-0.439-1.061v-8.25z">
            </path>
            <path fill="none" stroke="#f4f4f4" style="stroke: var(--color2, #f4f4f4)" stroke-linejoin="round"
                stroke-linecap="round" stroke-miterlimit="4" stroke-width="1" d="M13.75 23.5v-7.5h4.5v7.5"></path>
        </symbol>
        <symbol id="heart-menu" viewBox="0 0 32 32">
            <path fill="#4440f6" style="fill: var(--color1, #4440f6)" stroke="#f4f4f4"
                style="stroke: var(--color2, #f4f4f4)"
                d="M32 16c0 8.837-7.163 16-16 16s-16-7.163-16-16c0-8.837 7.163-16 16-16s16 7.163 16 16z"></path>
            <path fill="none" stroke="#f4f4f4" style="stroke: var(--color2, #f4f4f4)" stroke-linejoin="round"
                stroke-linecap="round" stroke-miterlimit="4" stroke-width="1"
                d="M22.631 10.457c-0.383-0.383-0.838-0.687-1.338-0.895s-1.037-0.314-1.579-0.314c-0.542 0-1.078 0.107-1.579 0.314s-0.956 0.511-1.338 0.895l-0.795 0.795-0.795-0.795c-0.774-0.774-1.823-1.208-2.918-1.208s-2.144 0.435-2.918 1.208c-0.774 0.774-1.208 1.823-1.208 2.918s0.435 2.144 1.208 2.918l6.63 6.63 6.63-6.63c0.383-0.383 0.687-0.838 0.895-1.338s0.314-1.037 0.314-1.579c0-0.542-0.107-1.078-0.314-1.579s-0.512-0.955-0.895-1.338v0z">
            </path>
        </symbol>
        <symbol id="icon-book" viewBox="0 0 32 32">
            <path fill="#4440f6" style="fill: var(--color1, #4440f6)"
                d="M32 16c0 8.837-7.163 16-16 16s-16-7.163-16-16c0-8.837 7.163-16 16-16s16 7.163 16 16z"></path>
            <path fill="none" stroke="#f4f4f4" style="stroke: var(--color2, #f4f4f4)" stroke-linejoin="round"
                stroke-linecap="round" stroke-miterlimit="4" stroke-width="1"
                d="M8.5 9.25h4.5c0.796 0 1.559 0.316 2.121 0.879s0.879 1.326 0.879 2.121v10.5c0-0.597-0.237-1.169-0.659-1.591s-0.994-0.659-1.591-0.659h-5.25v-11.25z">
            </path>
            <path fill="none" stroke="#f4f4f4" style="stroke: var(--color2, #f4f4f4)" stroke-linejoin="round"
                stroke-linecap="round" stroke-miterlimit="4" stroke-width="1"
                d="M23.5 9.25h-4.5c-0.796 0-1.559 0.316-2.121 0.879s-0.879 1.326-0.879 2.121v10.5c0-0.597 0.237-1.169 0.659-1.591s0.994-0.659 1.591-0.659h5.25v-11.25z">
            </path>
        </symbol>
        <symbol id="arrow-right" viewBox="0 0 18 32">
            <path stroke-linejoin="round" stroke-linecap="round" stroke-miterlimit="4" stroke-width="4.5714"
                d="M2.286 29.714l13.714-13.714-13.714-13.714"></path>
        </symbol>
    </defs>
</svg>